<?xml version="1.0" encoding="iso-8859-1"?>
<!-- Uploaded to: SVG Repo, www.svgrepo.com, Generator: SVG Repo Mixer Tools -->
<svg fill="#000000" height="800px" width="800px" version="1.1" id="Layer_1" xmlns="http://www.w3.org/2000/svg" xmlns:xlink="http://www.w3.org/1999/xlink" 
	 viewBox="0 0 512 512" xml:space="preserve">
<g>
	<g>
		<path d="M5.565,478.609v16.696c0,9.223,7.473,16.696,16.696,16.696h66.783c9.223,0,16.696-7.473,16.696-16.696v-16.696H5.565z"/>
	</g>
</g>
<g>
	<g>
		<path d="M406.261,478.609v16.696c0,9.223,7.473,16.696,16.696,16.696h66.783c9.223,0,16.696-7.473,16.696-16.696v-16.696H406.261z
			"/>
	</g>
</g>
<g>
	<g>
		<path d="M489.739,0H22.261C13.038,0,5.565,7.473,5.565,16.696v105.739h500.87V16.696C506.435,7.473,498.962,0,489.739,0z"/>
	</g>
</g>
<g>
	<g>
		<path d="M5.565,155.826v272.696c0,9.223,7.473,16.696,16.696,16.696h217.044V155.826H5.565z M189.217,289.391
			c-9.22,0-16.696-7.475-16.696-16.696c0-9.22,7.475-16.696,16.696-16.696s16.696,7.475,16.696,16.696
			C205.913,281.916,198.438,289.391,189.217,289.391z"/>
	</g>
</g>
<g>
	<g>
		<path d="M272.696,155.826v289.391h217.043c9.223,0,16.696-7.473,16.696-16.696V155.826H272.696z M322.783,289.391
			c-9.22,0-16.696-7.475-16.696-16.696c0-9.22,7.475-16.696,16.696-16.696s16.696,7.475,16.696,16.696
			C339.478,281.916,332.003,289.391,322.783,289.391z"/>
	</g>
</g>
</svg>