<?xml version="1.0" encoding="iso-8859-1"?>
<!-- Uploaded to: SVG Repo, www.svgrepo.com, Generator: SVG Repo Mixer Tools -->
<svg fill="#000000" version="1.1" id="Layer_1" xmlns="http://www.w3.org/2000/svg" xmlns:xlink="http://www.w3.org/1999/xlink" 
	 viewBox="0 0 512 512" xml:space="preserve">
<g>
	<g>
		<g>
			<rect x="40.312" y="0" width="431.382" height="124.683"/>
			<rect x="40.312" y="158.074" width="431.382" height="124.683"/>
			<path d="M40.306,484.174h62.57V512h33.391v-27.826h103.034V316.151H40.306V484.174z M178.084,380.984
				c10.592,0,19.179,8.586,19.179,19.179s-8.587,19.179-19.179,19.179s-19.179-8.586-19.179-19.179S167.492,380.984,178.084,380.984
				z"/>
			<path d="M272.693,484.174h103.034V512h33.391v-27.826h62.57V316.151H272.693V484.174z M333.91,380.984
				c10.592,0,19.179,8.586,19.179,19.179s-8.586,19.179-19.179,19.179s-19.179-8.586-19.179-19.179S323.319,380.984,333.91,380.984z
				"/>
		</g>
	</g>
</g>
</svg>